<svg width="24" height="24" viewBox="0 0 24 24" fill="none" xmlns="http://www.w3.org/2000/svg">
<path d="M22 8.71004C22 10.13 21.45 11.46 20.45 12.46L12.6 20.31C12.56 20.35 12.45 20.44 12.4 20.47C12.28 20.55 12.14 20.59 12 20.59C11.86 20.59 11.71 20.55 11.59 20.47C11.53 20.43 11.48 20.39 11.42 20.33L3.56 12.46C2.55 11.46 2 10.13 2 8.71004C2 7.29004 2.55 5.96004 3.56 4.96004C5.63 2.90004 8.99 2.90004 11.06 4.96004L12 5.91004L12.95 4.96004C15.02 2.90004 18.38 2.90004 20.44 4.96004C21.45 5.96004 22 7.29004 22 8.71004Z" fill="#414850"/>
</svg>
