<svg width="24" height="24" viewBox="0 0 24 24" fill="none" xmlns="http://www.w3.org/2000/svg">
<path d="M11.9999 16.39C10.4499 16.39 9.18994 17.65 9.18994 19.19C9.18994 20.74 10.4499 22 11.9999 22C13.5499 22 14.8099 20.74 14.8099 19.19C14.8099 17.65 13.5499 16.39 11.9999 16.39Z" fill="black"/>
<path d="M11.9999 14.8099C13.5519 14.8099 14.8099 13.5519 14.8099 11.9999C14.8099 10.448 13.5519 9.18994 11.9999 9.18994C10.448 9.18994 9.18994 10.448 9.18994 11.9999C9.18994 13.5519 10.448 14.8099 11.9999 14.8099Z" fill="black"/>
<path d="M11.9999 2C10.4499 2 9.18994 3.26 9.18994 4.81C9.18994 6.35 10.4499 7.60999 11.9999 7.60999C13.5499 7.60999 14.8099 6.35 14.8099 4.81C14.8099 3.26 13.5499 2 11.9999 2Z" fill="black"/>
</svg>
