<svg width="24" height="24" viewBox="0 0 24 24" fill="none" xmlns="http://www.w3.org/2000/svg">
<path d="M6.10986 7.89C6.10986 9.97 7.20989 11.88 8.97989 12.94L8.38989 13.52C8.08989 13.82 8.08989 14.29 8.38989 14.58L8.87988 15.08L8.38989 15.58C8.08989 15.87 8.08989 16.35 8.38989 16.64L8.87988 17.14L8.38989 17.63C8.08989 17.93 8.08989 18.4 8.38989 18.7L9.18988 19.5V20.22C9.18988 20.5 9.34986 20.76 9.60986 20.89L11.6699 21.92C11.7699 21.97 11.8799 22 11.9999 22C12.1199 22 12.2299 21.97 12.3299 21.92L14.3899 20.89C14.6499 20.76 14.8099 20.5 14.8099 20.22V13.06C16.6899 12.04 17.8899 10.06 17.8899 7.89C17.8899 4.64 15.2499 2 11.9999 2C8.74988 2 6.10986 4.64 6.10986 7.89ZM11.9999 5.08C12.6999 5.08 13.2599 5.65 13.2599 6.35C13.2599 7.04 12.6999 7.61 11.9999 7.61C11.2999 7.61 10.7399 7.04 10.7399 6.35C10.7399 5.65 11.2999 5.08 11.9999 5.08Z" fill="#414850"/>
</svg>
