<svg width="24" height="24" viewBox="0 0 24 24" fill="none" xmlns="http://www.w3.org/2000/svg">
<path d="M11.9998 2C7.8898 2 4.5498 5.34 4.5498 9.45C4.5498 14.34 10.7298 21.26 10.9898 21.55C11.2498 21.84 11.6198 22 11.9998 22C12.3798 22 12.7498 21.84 13.0098 21.55C13.6698 20.82 19.4498 14.23 19.4498 9.45C19.4498 5.34 16.1098 2 11.9998 2ZM11.9998 20.43C11.1898 19.49 6.0498 13.45 6.0498 9.45C6.0498 6.17 8.7198 3.5 11.9998 3.5C15.2798 3.5 17.9498 6.17 17.9498 9.45C17.9498 12.83 14.1198 18.03 11.9998 20.43Z" fill="#414850"/>
<path d="M11.9998 2C7.8898 2 4.5498 5.34 4.5498 9.45C4.5498 14.34 10.7298 21.26 10.9898 21.55C11.2498 21.84 11.6198 22 11.9998 22C12.3798 22 12.7498 21.84 13.0098 21.55C13.6698 20.82 19.4498 14.23 19.4498 9.45C19.4498 5.34 16.1098 2 11.9998 2ZM8.87981 9.45C8.87981 7.73 10.2798 6.33 11.9998 6.33C13.7198 6.33 15.1198 7.73 15.1198 9.45C15.1198 11.17 13.7198 12.57 11.9998 12.57C10.2798 12.57 8.87981 11.17 8.87981 9.45Z" fill="#414850"/>
</svg>
