<svg width="24" height="24" viewBox="0 0 24 24" fill="none" xmlns="http://www.w3.org/2000/svg">
<path d="M18.48 2H5.53C3.58 2 2 3.58 2 5.53V18.47C2 20.42 3.58 22 5.53 22H18.48C20.42 22 22 20.42 22 18.47V5.53C22 3.58 20.42 2 18.48 2ZM6 17.75C5.59 17.75 5.25 17.41 5.25 17C5.25 16.59 5.59 16.25 6 16.25H18C18.41 16.25 18.75 16.59 18.75 17C18.75 17.41 18.41 17.75 18 17.75H6ZM10.5 6.25C10.91 6.25 11.25 6.59 11.25 7C11.25 7.41 10.91 7.75 10.5 7.75H6C5.59 7.75 5.25 7.41 5.25 7C5.25 6.59 5.59 6.25 6 6.25H10.5ZM18 12.75H6C5.59 12.75 5.25 12.41 5.25 12C5.25 11.59 5.59 11.25 6 11.25H18C18.41 11.25 18.75 11.59 18.75 12C18.75 12.41 18.41 12.75 18 12.75Z" fill="#414850"/>
</svg>
