<svg width="24" height="24" viewBox="0 0 24 24" fill="none" xmlns="http://www.w3.org/2000/svg">
<path d="M18.84 6.60004H15.02C14.56 6.60004 14.13 6.36003 13.9 5.97003L13.24 4.88004C12.74 4.04004 11.82 3.52002 10.84 3.52002H4.81C3.26 3.52002 2 4.78002 2 6.33002V17.32C2 19.06 3.42 20.48 5.16 20.48H18.84C20.58 20.48 22 19.06 22 17.32V9.76004C22 8.02004 20.58 6.60004 18.84 6.60004ZM3.5 6.33002C3.5 5.61002 4.09 5.02002 4.81 5.02002H10.84C11.29 5.02002 11.72 5.26002 11.96 5.65002L12.53 6.60004H3.5V6.33002Z" fill="#414850"/>
</svg>
