<svg width="24" height="24" viewBox="0 0 24 24" fill="none" xmlns="http://www.w3.org/2000/svg">
<path d="M19.7999 5.25997L19.0299 6.02996C18.8899 6.17996 18.6899 6.24996 18.4999 6.24996C18.3099 6.24996 18.1199 6.17996 17.9699 6.02996C17.6799 5.73996 17.6799 5.25996 17.9699 4.96996L18.7399 4.19998C19.0399 3.89998 19.5099 3.89998 19.7999 4.19998C20.0999 4.48998 20.0999 4.95997 19.7999 5.25997Z" fill="black"/>
<path d="M16.5702 2.94002L16.2902 4.00001C16.2002 4.33001 15.9002 4.55 15.5702 4.55C15.5002 4.55 15.4402 4.55001 15.3702 4.53001C14.9702 4.42001 14.7302 4.01 14.8402 3.61L15.1302 2.56001C15.2302 2.16001 15.6502 1.92001 16.0402 2.03001C16.4402 2.13001 16.6802 2.54002 16.5702 2.94002Z" fill="black"/>
<path d="M21.4401 8.88005L20.3901 9.16005C20.3301 9.18005 20.2601 9.18004 20.2001 9.18004C19.8601 9.18004 19.5601 8.96005 19.4701 8.63005C19.3601 8.23005 19.6001 7.82004 20.0001 7.71004L21.0601 7.43004C21.4701 7.32004 21.8701 7.56004 21.9801 7.96004C22.0801 8.36004 21.8401 8.77005 21.4401 8.88005Z" fill="black"/>
<path d="M17.49 8.04996L15.95 6.50998C15.6 6.15998 15.14 5.96997 14.65 5.96997C14.65 5.96997 14.65 5.96997 14.64 5.96997C14.15 5.96997 13.69 6.15998 13.34 6.50998L2.54 17.31C1.82 18.03 1.82 19.2 2.54 19.92L4.08 21.46C4.44 21.82 4.91 22 5.39 22C5.86 22 6.33 21.82 6.69 21.46L17.49 10.66C17.84 10.31 18.03 9.84995 18.03 9.35995C18.03 8.85995 17.84 8.39996 17.49 8.04996ZM16.43 9.59998L14.58 11.45C14.54 11.34 14.49 11.23 14.4 11.14L12.86 9.59998C12.77 9.50998 12.67 9.45998 12.55 9.41998L14.4 7.56998C14.49 7.48998 14.59 7.46997 14.64 7.46997H14.65C14.7 7.46997 14.8 7.48998 14.89 7.56998L16.43 9.11996C16.52 9.19996 16.53 9.29995 16.53 9.35995C16.53 9.40995 16.52 9.50998 16.43 9.59998Z" fill="black"/>
<path d="M21.9802 7.96001C21.8702 7.56001 21.4702 7.32001 21.0602 7.43001L20.0002 7.71001C19.6002 7.82001 19.3602 8.23002 19.4702 8.63002C19.5602 8.96002 19.8602 9.18001 20.2002 9.18001C20.2602 9.18001 20.3302 9.18002 20.3902 9.16002L21.4402 8.88002C21.8402 8.77002 22.0802 8.36001 21.9802 7.96001ZM19.8002 4.20003C19.5102 3.90003 19.0402 3.90003 18.7402 4.20003L17.9702 4.97002C17.6802 5.26002 17.6802 5.74001 17.9702 6.03001C18.1202 6.18001 18.3102 6.25001 18.5002 6.25001C18.6902 6.25001 18.8902 6.18001 19.0302 6.03001L19.8002 5.26002C20.1002 4.96002 20.1002 4.49003 19.8002 4.20003ZM16.0402 2.03001C15.6502 1.92001 15.2302 2.16001 15.1302 2.56001L14.8402 3.61C14.7302 4.01 14.9702 4.42001 15.3702 4.53001C15.4402 4.55001 15.5002 4.55 15.5702 4.55C15.9002 4.55 16.2002 4.33001 16.2902 4.00001L16.5702 2.94002C16.6802 2.54002 16.4402 2.13001 16.0402 2.03001Z" fill="black"/>
</svg>
