<svg width="24" height="24" viewBox="0 0 24 24" fill="none" xmlns="http://www.w3.org/2000/svg">
<path d="M17.1301 3.54H15.8101C15.7524 3.11575 15.5437 2.72653 15.2222 2.44368C14.9008 2.16083 14.4882 2.00331 14.0601 2H9.94008C9.51194 2.00331 9.09933 2.16083 8.77791 2.44368C8.45649 2.72653 8.24779 3.11575 8.19008 3.54H6.86008C6.11747 3.54 5.40528 3.835 4.88018 4.3601C4.35508 4.8852 4.06008 5.59739 4.06008 6.34V19.19C4.05876 19.5585 4.13021 19.9237 4.27034 20.2646C4.41046 20.6055 4.6165 20.9153 4.87663 21.1764C5.13677 21.4374 5.44588 21.6446 5.78625 21.7859C6.12661 21.9272 6.49153 22 6.86008 22H17.1301C17.8753 22 18.5901 21.7039 19.117 21.177C19.644 20.65 19.9401 19.9353 19.9401 19.19V6.34C19.9401 5.97146 19.8673 5.60654 19.726 5.26617C19.5846 4.92581 19.3775 4.61669 19.1164 4.35656C18.8554 4.09642 18.5455 3.89038 18.2047 3.75026C17.8638 3.61014 17.4986 3.53868 17.1301 3.54V3.54ZM9.67008 8.91C9.66749 9.10811 9.58764 9.29737 9.44754 9.43747C9.30745 9.57756 9.11818 9.65741 8.92008 9.66H7.92008C7.72116 9.66 7.5304 9.58098 7.38975 9.44033C7.24909 9.29968 7.17008 9.10891 7.17008 8.91C7.17008 8.71109 7.24909 8.52032 7.38975 8.37967C7.5304 8.23902 7.72116 8.16 7.92008 8.16H8.92008C9.11818 8.16259 9.30745 8.24244 9.44754 8.38253C9.58764 8.52263 9.66749 8.71189 9.67008 8.91V8.91ZM7.13008 17.14C7.13267 16.9419 7.21252 16.7526 7.35261 16.6125C7.49271 16.4724 7.68197 16.3926 7.88008 16.39H16.1101C16.309 16.39 16.4998 16.469 16.6404 16.6097C16.7811 16.7503 16.8601 16.9411 16.8601 17.14C16.8601 17.3389 16.7811 17.5297 16.6404 17.6703C16.4998 17.811 16.309 17.89 16.1101 17.89H7.88008C7.68197 17.8874 7.49271 17.8076 7.35261 17.6675C7.21252 17.5274 7.13267 17.3381 7.13008 17.14V17.14ZM16.1301 13.77H7.88008C7.68116 13.77 7.4904 13.691 7.34975 13.5503C7.20909 13.4097 7.13008 13.2189 7.13008 13.02C7.13008 12.8211 7.20909 12.6303 7.34975 12.4897C7.4904 12.349 7.68116 12.27 7.88008 12.27H16.1101C16.309 12.27 16.4998 12.349 16.6404 12.4897C16.7811 12.6303 16.8601 12.8211 16.8601 13.02C16.8601 13.2189 16.7811 13.4097 16.6404 13.5503C16.4998 13.691 16.309 13.77 16.1101 13.77H16.1301ZM9.69008 3.77C9.69008 3.69839 9.71852 3.62972 9.76916 3.57908C9.81979 3.52845 9.88847 3.5 9.96008 3.5H14.0801C14.1509 3.50249 14.2181 3.53173 14.2682 3.58184C14.3183 3.63194 14.3476 3.69918 14.3501 3.77V4.77C14.3501 4.84256 14.322 4.9123 14.2716 4.96454C14.2213 5.01677 14.1526 5.04741 14.0801 5.05H9.94008C9.90376 5.05002 9.86782 5.04272 9.83439 5.02853C9.80096 5.01434 9.77074 4.99356 9.74553 4.96742C9.72033 4.94128 9.70065 4.91032 9.68769 4.8764C9.67472 4.84248 9.66873 4.80629 9.67008 4.77L9.69008 3.77Z" fill="#414850"/>
</svg>
