<svg width="24" height="24" viewBox="0 0 24 24" fill="none" xmlns="http://www.w3.org/2000/svg">
<path d="M21.78 5.92L18.08 2.22C17.94 2.08 17.75 2 17.55 2C17.35 2 17.16 2.08 17.02 2.22L2.23 17.01C2.09 17.15 2.01999 17.33 2.00999 17.53L2 21.25C2 21.45 2.08 21.64 2.22 21.78C2.36 21.92 2.55 22 2.75 22L6.47 21.99C6.67 21.99 6.86001 21.91 6.99001 21.77L21.78 6.98C22.07 6.69 22.07 6.21 21.78 5.92ZM18.45 8.19C18.43 8.17 18.43 8.14 18.4 8.12L15.88 5.60001C15.86 5.58001 15.83 5.57 15.81 5.55L17.55 3.81L20.19 6.45L18.45 8.19Z" fill="#414850"/>
</svg>
