<svg width="24" height="24" viewBox="0 0 24 24" fill="none" xmlns="http://www.w3.org/2000/svg">
<path d="M20.21 5.07999H15.83V2.73999C15.83 2.32999 15.5 1.98999 15.08 1.98999H8.92004C8.51004 1.98999 8.17004 2.32999 8.17004 2.73999V5.07999H3.79004C3.38004 5.07999 3.04004 5.40999 3.04004 5.82999C3.04004 6.23999 3.38004 6.57999 3.79004 6.57999H4.94005V19.19C4.94005 20.74 6.20005 21.99 7.75005 21.99H15.91C17.45 21.99 18.71 20.74 18.71 19.19V6.57999H20.21C20.62 6.57999 20.96 6.23999 20.96 5.82999C20.96 5.40999 20.62 5.07999 20.21 5.07999ZM9.19005 17.14V9.74998C9.19005 9.33998 9.53005 8.99998 9.94005 8.99998C10.36 8.99998 10.69 9.33998 10.69 9.74998V17.14C10.69 17.55 10.36 17.89 9.94005 17.89C9.53005 17.89 9.19005 17.55 9.19005 17.14ZM14.81 17.14C14.81 17.55 14.47 17.89 14.06 17.89C13.64 17.89 13.31 17.55 13.31 17.14V9.74998C13.31 9.32998 13.64 8.99998 14.06 8.99998C14.47 8.99998 14.81 9.32998 14.81 9.74998V17.14ZM9.67004 3.48999H14.33V5.07999H9.67004V3.48999Z" fill="#414850"/>
</svg>
